<svg class="diagram-root" style="background: #f5f6f6" xmlns="http://www.w3.org/2000/svg" xmlns:xlink="http://www.w3.org/1999/xlink"><style>.diagram-root { font-family: "Helvetica Neue", sans-serif; font-size: 12px; } .t { overflow: visible; } .t-bg { y: 40; fill: #fff;   } .th { fill: #005aa0;   } .tht { fill: #fff; font-size: 14px;  } .tf { fill: #323c46; overflow: visible; } .tf.pk { fill: #005aa0; font-weight: bold; } .tf.fk { font-weight: bold; } .ty { fill: #adb1b5; font-weight: normal; text-anchor: end; } .r { fill: transparent; stroke: #c3c3c3; stroke-width: 1; } .l { stroke: 1; } .i { fill: #c2c7ce; stroke: #c2c7ce; } .i.ix { fill: #afb3b6; stroke: #000; } .fa { fill: transparent; overflow: visible; } .fa .bg.hover { fill: #f7f7f7; } .c { cy: 12; r: 4; stroke: #d2d2dc; fill: #d2d2dc; } .hr { fill: transparent; stroke: #323c46; stroke-opacity: 0.035; stroke-width: 13; } .dc { stroke: #fa5a3c; fill: #fa5a3c; } .x { stroke: white; stroke-width: 1; } .hl .th { fill: #1b9bff; } .hl .tht {  } .fhl .bg { fill: #e7f4ff; } .fhls .bg {  } .r.hl { stroke: #1b9bff; } .dim { opacity: 0.25; }</style><g class="drawing-wrapper" transform="translate(-17.63636363636364, -58.545454545454305) scale(1,1)"><g class="rs"><path d="M 489.55 446.3636363636354 m -1, 0 a 1,1 0 1,0 2,0 a 1,1 0 1,0 -2,0 M 489.55 446.3636363636354 m -0.5, 0 a 0.5,0.5 0 1,0 1,0 a 0.5,0.5 0 1,0 -1,0  M489.55 446.3636363636354 L489.55 446.3636363636354 501.55 446.3636363636354 M 489.55 452.3636363636354 m -1, 0 a 1,1 0 1,0 2,0 a 1,1 0 1,0 -2,0 M 489.55 452.3636363636354 m -0.5, 0 a 0.5,0.5 0 1,0 1,0 a 0.5,0.5 0 1,0 -1,0  M489.55 452.3636363636354 L489.55 452.3636363636354 496.55 446.3636363636354 489.55 440.3636363636354 M 489.55 440.3636363636354 m -1, 0 a 1,1 0 1,0 2,0 a 1,1 0 1,0 -2,0 M 489.55 440.3636363636354 m -0.5, 0 a 0.5,0.5 0 1,0 1,0 a 0.5,0.5 0 1,0 -1,0  M501.55 446.3636363636354 C 551.55 446.3636363636354, 556.89 208.81818181818213, 492.65 208.81818181818213 M 480.65 208.81818181818213 m -1, 0 a 1,1 0 1,0 2,0 a 1,1 0 1,0 -2,0 M 480.65 208.81818181818213 m -0.5, 0 a 0.5,0.5 0 1,0 1,0 a 0.5,0.5 0 1,0 -1,0  M480.65 208.81818181818213 L480.65 208.81818181818213 492.65 208.81818181818213 M486.65 214.81818181818213 L486.65 214.81818181818213 486.65 202.81818181818213" id="h1736270986" class="r"></path><path d="M 338.818181818182 471.3636363636354 m -1, 0 a 1,1 0 1,0 2,0 a 1,1 0 1,0 -2,0 M 338.818181818182 471.3636363636354 m -0.5, 0 a 0.5,0.5 0 1,0 1,0 a 0.5,0.5 0 1,0 -1,0  M338.818181818182 471.3636363636354 L338.818181818182 471.3636363636354 326.818181818182 471.3636363636354 M 338.818181818182 477.3636363636354 m -1, 0 a 1,1 0 1,0 2,0 a 1,1 0 1,0 -2,0 M 338.818181818182 477.3636363636354 m -0.5, 0 a 0.5,0.5 0 1,0 1,0 a 0.5,0.5 0 1,0 -1,0  M338.818181818182 477.3636363636354 L338.818181818182 477.3636363636354 331.818181818182 471.3636363636354 338.818181818182 465.3636363636354 M 338.818181818182 465.3636363636354 m -1, 0 a 1,1 0 1,0 2,0 a 1,1 0 1,0 -2,0 M 338.818181818182 465.3636363636354 m -0.5, 0 a 0.5,0.5 0 1,0 1,0 a 0.5,0.5 0 1,0 -1,0  M326.818181818182 471.3636363636354 Q 300.7 471.3636363636354, 274.59 352.18 T 222.37 232.99999999999923 M 210.37 232.99999999999923 m -1, 0 a 1,1 0 1,0 2,0 a 1,1 0 1,0 -2,0 M 210.37 232.99999999999923 m -0.5, 0 a 0.5,0.5 0 1,0 1,0 a 0.5,0.5 0 1,0 -1,0  M210.37 232.99999999999923 L210.37 232.99999999999923 222.37 232.99999999999923 M216.37 238.99999999999923 L216.37 238.99999999999923 216.37 226.99999999999923" id="h3233325729" class="r"></path><path d="M 503.909090909091 145.5454545454543 m -1, 0 a 1,1 0 1,0 2,0 a 1,1 0 1,0 -2,0 M 503.909090909091 145.5454545454543 m -0.5, 0 a 0.5,0.5 0 1,0 1,0 a 0.5,0.5 0 1,0 -1,0  M503.909090909091 145.5454545454543 L503.909090909091 145.5454545454543 491.909090909091 145.5454545454543 M 503.909090909091 151.5454545454543 m -1, 0 a 1,1 0 1,0 2,0 a 1,1 0 1,0 -2,0 M 503.909090909091 151.5454545454543 m -0.5, 0 a 0.5,0.5 0 1,0 1,0 a 0.5,0.5 0 1,0 -1,0  M503.909090909091 151.5454545454543 L503.909090909091 151.5454545454543 496.909090909091 145.5454545454543 503.909090909091 139.5454545454543 M 503.909090909091 139.5454545454543 m -1, 0 a 1,1 0 1,0 2,0 a 1,1 0 1,0 -2,0 M 503.909090909091 139.5454545454543 m -0.5, 0 a 0.5,0.5 0 1,0 1,0 a 0.5,0.5 0 1,0 -1,0  M491.909090909091 145.5454545454543 Q 424.52 145.5454545454543, 357.14 189.27 T 222.37 232.99999999999923 M 210.37 232.99999999999923 m -1, 0 a 1,1 0 1,0 2,0 a 1,1 0 1,0 -2,0 M 210.37 232.99999999999923 m -0.5, 0 a 0.5,0.5 0 1,0 1,0 a 0.5,0.5 0 1,0 -1,0  M210.37 232.99999999999923 L210.37 232.99999999999923 222.37 232.99999999999923 M216.37 238.99999999999923 L216.37 238.99999999999923 216.37 226.99999999999923" id="h639454232" class="r"></path><path d="M 654.64 170.5454545454543 m -1, 0 a 1,1 0 1,0 2,0 a 1,1 0 1,0 -2,0 M 654.64 170.5454545454543 m -0.5, 0 a 0.5,0.5 0 1,0 1,0 a 0.5,0.5 0 1,0 -1,0  M654.64 170.5454545454543 L654.64 170.5454545454543 666.64 170.5454545454543 M 654.64 176.5454545454543 m -1, 0 a 1,1 0 1,0 2,0 a 1,1 0 1,0 -2,0 M 654.64 176.5454545454543 m -0.5, 0 a 0.5,0.5 0 1,0 1,0 a 0.5,0.5 0 1,0 -1,0  M654.64 176.5454545454543 L654.64 176.5454545454543 661.64 170.5454545454543 654.64 164.5454545454543 M 654.64 164.5454545454543 m -1, 0 a 1,1 0 1,0 2,0 a 1,1 0 1,0 -2,0 M 654.64 164.5454545454543 m -0.5, 0 a 0.5,0.5 0 1,0 1,0 a 0.5,0.5 0 1,0 -1,0  M666.64 170.5454545454543 C 716.64 170.5454545454543, 821.034 208.81818181818213, 492.65 208.81818181818213 M 480.65 208.81818181818213 m -1, 0 a 1,1 0 1,0 2,0 a 1,1 0 1,0 -2,0 M 480.65 208.81818181818213 m -0.5, 0 a 0.5,0.5 0 1,0 1,0 a 0.5,0.5 0 1,0 -1,0  M480.65 208.81818181818213 L480.65 208.81818181818213 492.65 208.81818181818213 M486.65 214.81818181818213 L486.65 214.81818181818213 486.65 202.81818181818213" id="h1499507187" class="r"></path><path d="M 698.9999999999995 533.9090909090908 m -1, 0 a 1,1 0 1,0 2,0 a 1,1 0 1,0 -2,0 M 698.9999999999995 533.9090909090908 m -0.5, 0 a 0.5,0.5 0 1,0 1,0 a 0.5,0.5 0 1,0 -1,0  M698.9999999999995 533.9090909090908 L698.9999999999995 533.9090909090908 686.9999999999995 533.9090909090908 M 698.9999999999995 539.9090909090908 m -1, 0 a 1,1 0 1,0 2,0 a 1,1 0 1,0 -2,0 M 698.9999999999995 539.9090909090908 m -0.5, 0 a 0.5,0.5 0 1,0 1,0 a 0.5,0.5 0 1,0 -1,0  M698.9999999999995 539.9090909090908 L698.9999999999995 539.9090909090908 691.9999999999995 533.9090909090908 698.9999999999995 527.9090909090908 M 698.9999999999995 527.9090909090908 m -1, 0 a 1,1 0 1,0 2,0 a 1,1 0 1,0 -2,0 M 698.9999999999995 527.9090909090908 m -0.5, 0 a 0.5,0.5 0 1,0 1,0 a 0.5,0.5 0 1,0 -1,0  M686.9999999999995 533.9090909090908 Q 638.41 533.9090909090908, 589.82 371.36 T 492.65 208.81818181818213 M 480.65 208.81818181818213 m -1, 0 a 1,1 0 1,0 2,0 a 1,1 0 1,0 -2,0 M 480.65 208.81818181818213 m -0.5, 0 a 0.5,0.5 0 1,0 1,0 a 0.5,0.5 0 1,0 -1,0  M480.65 208.81818181818213 L480.65 208.81818181818213 492.65 208.81818181818213 M486.65 214.81818181818213 L486.65 214.81818181818213 486.65 202.81818181818213" id="h221257298" class="r"></path><path d="M 717.5454545454552 277.9999999999992 m -1, 0 a 1,1 0 1,0 2,0 a 1,1 0 1,0 -2,0 M 717.5454545454552 277.9999999999992 m -0.5, 0 a 0.5,0.5 0 1,0 1,0 a 0.5,0.5 0 1,0 -1,0  M717.5454545454552 277.9999999999992 L717.5454545454552 277.9999999999992 705.5454545454552 277.9999999999992 M 717.5454545454552 283.9999999999992 m -1, 0 a 1,1 0 1,0 2,0 a 1,1 0 1,0 -2,0 M 717.5454545454552 283.9999999999992 m -0.5, 0 a 0.5,0.5 0 1,0 1,0 a 0.5,0.5 0 1,0 -1,0  M717.5454545454552 283.9999999999992 L717.5454545454552 283.9999999999992 710.5454545454552 277.9999999999992 717.5454545454552 271.9999999999992 M 717.5454545454552 271.9999999999992 m -1, 0 a 1,1 0 1,0 2,0 a 1,1 0 1,0 -2,0 M 717.5454545454552 271.9999999999992 m -0.5, 0 a 0.5,0.5 0 1,0 1,0 a 0.5,0.5 0 1,0 -1,0  M705.5454545454552 277.9999999999992 Q 652.32 277.9999999999992, 599.1 243.41 T 492.65 208.81818181818213 M 480.65 208.81818181818213 m -1, 0 a 1,1 0 1,0 2,0 a 1,1 0 1,0 -2,0 M 480.65 208.81818181818213 m -0.5, 0 a 0.5,0.5 0 1,0 1,0 a 0.5,0.5 0 1,0 -1,0  M480.65 208.81818181818213 L480.65 208.81818181818213 492.65 208.81818181818213 M486.65 214.81818181818213 L486.65 214.81818181818213 486.65 202.81818181818213" id="h1168633520" class="r"></path></g><g class="hrs"></g><g class="ts"><svg width="170.73" height="100" x="39.63636363636364" y="175.99999999999923" id="h3708248841" class="t"><rect height="40" width="170.73" class="th"></rect><text x="13" y="25" class="tht">Departments</text><rect height="60" width="170.73" class="t-bg" y="40"></rect><text x="13" y="61" class="tf pk">dept_no<tspan x="157.73" class="ty">varchar(30)</tspan></text><path d="M7,14A2,2 0 0,1 5,12A2,2 0 0,1 7,10A2,2 0 0,1 9,12A2,2 0 0,1 7,14M12.65,10C11.83,7.67 9.61,6 7, 6A6, 6 0 0, 0 1, 12A6, 6 0 0, 0 7, 18C9.61, 18 11.83, 16.33 12.65, 14H17V18H21V14H23V10H12.65Z" class="i pk" transform="translate(76.37648437499999, 48) scale(0.65)"></path><text x="13" y="86" class="tf">dept_name<tspan x="157.73" class="ty">varchar(30)</tspan></text></svg><svg width="123.38" height="150" x="698.9999999999995" y="476.9090909090908" id="h3858243705" class="t"><rect height="40" width="123.38" class="th"></rect><text x="13" y="25" class="tht">Salaries</text><rect height="110" width="123.38" class="t-bg" y="40"></rect><text x="13" y="61" class="tf fk">emp_no<tspan x="110.38" class="ty">int</tspan></text><text x="13" y="86" class="tf">salary<tspan x="110.38" class="ty">int</tspan></text><text x="13" y="111" class="tf">from_date<tspan x="110.38" class="ty">date</tspan></text><text x="13" y="136" class="tf">to_date<tspan x="110.38" class="ty">date</tspan></text></svg><svg width="126.03" height="150" x="717.5454545454552" y="220.99999999999923" id="h3517680912" class="t"><rect height="40" width="126.03" class="th"></rect><text x="13" y="25" class="tht">Titles</text><rect height="110" width="126.03" class="t-bg" y="40"></rect><text x="13" y="61" class="tf fk">emp_no<tspan x="113.03" class="ty">int</tspan></text><text x="13" y="86" class="tf">title<tspan x="113.03" class="ty">varchar(35)</tspan></text><text x="13" y="111" class="tf">from_date<tspan x="113.03" class="ty">date</tspan></text><text x="13" y="136" class="tf">to_date<tspan x="113.03" class="ty">date</tspan></text></svg><svg width="163.38" height="200" x="317.27272727272657" y="151.81818181818213" id="h3299212598" class="t"><rect height="40" width="163.38" class="th"></rect><text x="13" y="25" class="tht">Employees</text><rect height="160" width="163.38" class="t-bg" y="40"></rect><text x="13" y="61" class="tf pk">emp_no<tspan x="150.38" class="ty">int</tspan></text><path d="M7,14A2,2 0 0,1 5,12A2,2 0 0,1 7,10A2,2 0 0,1 9,12A2,2 0 0,1 7,14M12.65,10C11.83,7.67 9.61,6 7, 6A6, 6 0 0, 0 1, 12A6, 6 0 0, 0 7, 18C9.61, 18 11.83, 16.33 12.65, 14H17V18H21V14H23V10H12.65Z" class="i pk" transform="translate(117.706171875, 48) scale(0.65)"></path><text x="13" y="86" class="tf">birth_date<tspan x="150.38" class="ty">date</tspan></text><text x="13" y="111" class="tf">first_name<tspan x="150.38" class="ty">varchar(35)</tspan></text><text x="13" y="136" class="tf">last_name<tspan x="150.38" class="ty">varchar(35)</tspan></text><text x="13" y="161" class="tf">gender<tspan x="150.38" class="ty">varchar(1)</tspan></text><text x="13" y="186" class="tf">hire_date<tspan x="150.38" class="ty">date</tspan></text></svg><svg width="150.73" height="150" x="503.909090909091" y="88.5454545454543" id="h2403958395" class="t"><rect height="40" width="150.73" class="th"></rect><text x="13" y="25" class="tht">Dept_manager</text><rect height="110" width="150.73" class="t-bg" y="40"></rect><text x="13" y="61" class="tf fk">dept_no<tspan x="137.73" class="ty">varchar(30)</tspan></text><text x="13" y="86" class="tf fk">emp_no<tspan x="137.73" class="ty">int</tspan></text><text x="13" y="111" class="tf">from_date<tspan x="137.73" class="ty">date</tspan></text><text x="13" y="136" class="tf">to_date<tspan x="137.73" class="ty">date</tspan></text></svg><svg width="150.73" height="150" x="338.818181818182" y="389.3636363636354" id="h4086156755" class="t"><rect height="40" width="150.73" class="th"></rect><text x="13" y="25" class="tht">Dept_emp</text><rect height="110" width="150.73" class="t-bg" y="40"></rect><text x="13" y="61" class="tf fk">emp_no<tspan x="137.73" class="ty">int</tspan></text><text x="13" y="86" class="tf fk">dept_no<tspan x="137.73" class="ty">varchar(30)</tspan></text><text x="13" y="111" class="tf">from_date<tspan x="137.73" class="ty">date</tspan></text><text x="13" y="136" class="tf">to_date<tspan x="137.73" class="ty">date</tspan></text></svg></g></g><text class="qdbd-link" x="10" y="20">www.quickdatabasediagrams.com</text></svg>